<svg width="45" height="45" viewBox="0 0 45 45" fill="none" xmlns="http://www.w3.org/2000/svg">
<circle cx="22.5" cy="22.5" r="22" fill="#272A2F" stroke="white"/>
<path d="M22.5 21C25.5376 21 28 18.5376 28 15.5C28 12.4624 25.5376 10 22.5 10C19.4624 10 17 12.4624 17 15.5C17 18.5376 19.4624 21 22.5 21Z" fill="white"/>
<path d="M34 30.16C34 32.8331 34 35 23 35C12 35 12 32.8331 12 30.16C12 28.5005 13.6958 26.8665 16.561 25.6554C20.6367 23.9326 25.3633 23.9326 29.439 25.6554C32.3042 26.8665 34 28.5005 34 30.16Z" fill="white"/>
</svg>
