<svg width="150" height="60" viewBox="0 0 150 60" fill="none" xmlns="http://www.w3.org/2000/svg">
<path d="M0 20C0 8.9543 8.95431 0 20 0H150V40C150 51.0457 141.046 60 130 60H0V20Z" fill="white"/>
<path d="M12 24.3428V33.8422C12 36.3737 12.9601 38.8109 14.6866 40.6623L15.6787 41.7262C18.8418 45.118 24.217 45.118 27.3801 41.7262L28.3722 40.6623C30.0987 38.8109 31.0588 36.3737 31.0588 33.8422V24.5" stroke="#C74134" stroke-width="3" stroke-linecap="square"/>
<path d="M31.5 24.5H35.0424C38.6652 24.5 41.9483 26.6336 43.4196 29.9442V29.9442C44.4296 32.2166 44.4731 34.8018 43.54 37.1069L43.279 37.7519C41.7504 41.5284 38.0836 44 34.0095 44H31" stroke="#C74134" stroke-width="3" stroke-linecap="square"/>
<path d="M16.2351 13.0571L16.5902 13.6843C17.0426 14.4834 17.1768 15.4237 16.966 16.3174L16.9177 16.5221C16.817 16.9489 16.6165 17.3457 16.3326 17.68V17.68C15.6285 18.5091 15.4744 19.6734 15.9385 20.6571L16.2351 21.2857" stroke="#C74134" stroke-width="2" stroke-linecap="round"/>
<path d="M26.8235 13.0571L27.1786 13.6843C27.631 14.4834 27.7652 15.4237 27.5543 16.3174L27.5061 16.5221C27.4054 16.9489 27.2049 17.3457 26.921 17.68V17.68C26.2169 18.5091 26.0627 19.6734 26.5269 20.6571L26.8235 21.2857" stroke="#C74134" stroke-width="2" stroke-linecap="round"/>
<path d="M21.5295 11L21.8783 11.77C22.3404 12.7903 22.4769 13.9282 22.2692 15.0288L22.2089 15.3483C22.11 15.8724 21.9043 16.3705 21.6045 16.8117V16.8117C20.8937 17.8579 20.7365 19.1847 21.1832 20.3681L21.5295 21.2857" stroke="#C74134" stroke-width="2" stroke-linecap="round"/>
<path d="M60.92 26.1C59.1867 26.1 57.82 25.5933 56.82 24.58C55.82 23.5667 55.32 22.06 55.32 20.06V12H56.34V20.02C56.34 21.7667 56.74 23.06 57.54 23.9C58.34 24.74 59.4733 25.16 60.94 25.16C62.3933 25.16 63.52 24.74 64.32 23.9C65.12 23.06 65.52 21.7667 65.52 20.02V12H66.54V20.06C66.54 22.06 66.04 23.5667 65.04 24.58C64.04 25.5933 62.6667 26.1 60.92 26.1ZM71.7394 23.12L71.7594 21.86L78.6594 15.56H79.9394L75.3594 19.86L74.7594 20.36L71.7394 23.12ZM70.9794 26V11.16H71.9794V26H70.9794ZM79.1394 26L74.5794 20.28L75.2594 19.54L80.3794 26H79.1394ZM82.5614 26V15.56H83.5214V18.42L83.4214 18.1C83.7147 17.26 84.2081 16.6133 84.9014 16.16C85.5947 15.7067 86.4614 15.48 87.5014 15.48V16.46C87.4614 16.46 87.4214 16.46 87.3814 16.46C87.3414 16.4467 87.3014 16.44 87.2614 16.44C86.1014 16.44 85.1947 16.8067 84.5414 17.54C83.8881 18.26 83.5614 19.2667 83.5614 20.56V26H82.5614ZM96.0555 26V23.62L96.0155 23.26V19.34C96.0155 18.3667 95.7488 17.6267 95.2155 17.12C94.6955 16.6133 93.9288 16.36 92.9155 16.36C92.1955 16.36 91.5221 16.4867 90.8955 16.74C90.2821 16.98 89.7555 17.2933 89.3155 17.68L88.8155 16.96C89.3355 16.4933 89.9621 16.1333 90.6955 15.88C91.4288 15.6133 92.1955 15.48 92.9955 15.48C94.2888 15.48 95.2821 15.8067 95.9755 16.46C96.6688 17.1133 97.0155 18.0867 97.0155 19.38V26H96.0555ZM92.2955 26.08C91.5221 26.08 90.8488 25.96 90.2755 25.72C89.7155 25.4667 89.2821 25.1133 88.9755 24.66C88.6821 24.2067 88.5355 23.6867 88.5355 23.1C88.5355 22.5667 88.6555 22.0867 88.8955 21.66C89.1488 21.22 89.5621 20.8667 90.1355 20.6C90.7088 20.32 91.4755 20.18 92.4355 20.18H96.2755V20.96H92.4555C91.3755 20.96 90.6155 21.16 90.1755 21.56C89.7488 21.96 89.5355 22.46 89.5355 23.06C89.5355 23.7267 89.7888 24.26 90.2955 24.66C90.8021 25.06 91.5155 25.26 92.4355 25.26C93.3155 25.26 94.0555 25.06 94.6555 24.66C95.2688 24.26 95.7221 23.68 96.0155 22.92L96.2955 23.6C96.0155 24.36 95.5355 24.9667 94.8555 25.42C94.1888 25.86 93.3355 26.08 92.2955 26.08ZM101.136 26V15.56H102.136V26H101.136ZM101.636 13.02C101.409 13.02 101.216 12.94 101.056 12.78C100.896 12.62 100.816 12.4333 100.816 12.22C100.816 11.9933 100.896 11.8 101.056 11.64C101.216 11.48 101.409 11.4 101.636 11.4C101.876 11.4 102.069 11.48 102.216 11.64C102.376 11.7867 102.456 11.9733 102.456 12.2C102.456 12.4267 102.376 12.62 102.216 12.78C102.069 12.94 101.876 13.02 101.636 13.02ZM111.45 15.48C112.304 15.48 113.044 15.6467 113.67 15.98C114.31 16.3 114.804 16.7933 115.15 17.46C115.51 18.1133 115.69 18.9267 115.69 19.9V26H114.69V19.98C114.69 18.8067 114.39 17.9133 113.79 17.3C113.204 16.6867 112.377 16.38 111.31 16.38C110.497 16.38 109.79 16.5467 109.19 16.88C108.59 17.2133 108.13 17.68 107.81 18.28C107.504 18.88 107.35 19.6 107.35 20.44V26H106.35V15.56H107.31V18.46L107.17 18.14C107.49 17.3133 108.017 16.6667 108.75 16.2C109.484 15.72 110.384 15.48 111.45 15.48ZM124.048 26.08C122.994 26.08 122.061 25.8533 121.248 25.4C120.448 24.9467 119.814 24.32 119.348 23.52C118.894 22.72 118.668 21.8067 118.668 20.78C118.668 19.74 118.881 18.8267 119.308 18.04C119.748 17.24 120.348 16.6133 121.108 16.16C121.868 15.7067 122.721 15.48 123.668 15.48C124.614 15.48 125.461 15.7 126.208 16.14C126.968 16.58 127.561 17.2 127.988 18C128.428 18.7867 128.648 19.7 128.648 20.74C128.648 20.78 128.641 20.8267 128.628 20.88C128.628 20.92 128.628 20.9667 128.628 21.02H119.408V20.24H128.088L127.688 20.62C127.701 19.8067 127.528 19.08 127.168 18.44C126.821 17.7867 126.348 17.28 125.748 16.92C125.148 16.5467 124.454 16.36 123.668 16.36C122.894 16.36 122.201 16.5467 121.588 16.92C120.988 17.28 120.514 17.7867 120.168 18.44C119.821 19.08 119.648 19.8133 119.648 20.64V20.82C119.648 21.6733 119.834 22.4333 120.208 23.1C120.594 23.7533 121.121 24.2667 121.788 24.64C122.454 25 123.214 25.18 124.068 25.18C124.734 25.18 125.354 25.06 125.928 24.82C126.514 24.58 127.008 24.2133 127.408 23.72L127.988 24.38C127.534 24.94 126.961 25.3667 126.268 25.66C125.588 25.94 124.848 26.08 124.048 26.08Z" fill="#272A2F"/>
<path d="M55.28 48V34H60.98C62.4733 34 63.78 34.3 64.9 34.9C66.0333 35.4867 66.9133 36.3067 67.54 37.36C68.1667 38.4133 68.48 39.6267 68.48 41C68.48 42.3733 68.1667 43.5867 67.54 44.64C66.9133 45.6933 66.0333 46.52 64.9 47.12C63.78 47.7067 62.4733 48 60.98 48H55.28ZM56.76 46.72H60.9C62.14 46.72 63.2133 46.48 64.12 46C65.04 45.5067 65.7533 44.8333 66.26 43.98C66.7667 43.1133 67.02 42.12 67.02 41C67.02 39.8667 66.7667 38.8733 66.26 38.02C65.7533 37.1667 65.04 36.5 64.12 36.02C63.2133 35.5267 62.14 35.28 60.9 35.28H56.76V46.72ZM75.9634 48.1C74.8701 48.1 73.9101 47.8733 73.0834 47.42C72.2568 46.9533 71.6101 46.32 71.1434 45.52C70.6768 44.7067 70.4434 43.78 70.4434 42.74C70.4434 41.7 70.6634 40.78 71.1034 39.98C71.5568 39.18 72.1701 38.5533 72.9434 38.1C73.7301 37.6333 74.6101 37.4 75.5834 37.4C76.5701 37.4 77.4434 37.6267 78.2034 38.08C78.9768 38.52 79.5834 39.1467 80.0234 39.96C80.4634 40.76 80.6834 41.6867 80.6834 42.74C80.6834 42.8067 80.6768 42.88 80.6634 42.96C80.6634 43.0267 80.6634 43.1 80.6634 43.18H71.5234V42.12H79.9034L79.3434 42.54C79.3434 41.78 79.1768 41.1067 78.8434 40.52C78.5234 39.92 78.0834 39.4533 77.5234 39.12C76.9634 38.7867 76.3168 38.62 75.5834 38.62C74.8634 38.62 74.2168 38.7867 73.6434 39.12C73.0701 39.4533 72.6234 39.92 72.3034 40.52C71.9834 41.12 71.8234 41.8067 71.8234 42.58V42.8C71.8234 43.6 71.9968 44.3067 72.3434 44.92C72.7034 45.52 73.1968 45.9933 73.8234 46.34C74.4634 46.6733 75.1901 46.84 76.0034 46.84C76.6434 46.84 77.2368 46.7267 77.7834 46.5C78.3434 46.2733 78.8234 45.9267 79.2234 45.46L80.0234 46.38C79.5568 46.94 78.9701 47.3667 78.2634 47.66C77.5701 47.9533 76.8034 48.1 75.9634 48.1ZM83.5738 48V33.16H84.9938V48H83.5738ZM88.9448 48V37.5H90.3648V48H88.9448ZM89.6648 35.18C89.3715 35.18 89.1248 35.08 88.9248 34.88C88.7248 34.68 88.6248 34.44 88.6248 34.16C88.6248 33.88 88.7248 33.6467 88.9248 33.46C89.1248 33.26 89.3715 33.16 89.6648 33.16C89.9582 33.16 90.2048 33.2533 90.4048 33.44C90.6048 33.6267 90.7048 33.86 90.7048 34.14C90.7048 34.4333 90.6048 34.68 90.4048 34.88C90.2182 35.08 89.9715 35.18 89.6648 35.18ZM98.7959 51.98C97.8359 51.98 96.9159 51.84 96.0359 51.56C95.1559 51.28 94.4426 50.88 93.8959 50.36L94.6159 49.28C95.1093 49.72 95.7159 50.0667 96.4359 50.32C97.1693 50.5867 97.9426 50.72 98.7559 50.72C100.089 50.72 101.069 50.4067 101.696 49.78C102.323 49.1667 102.636 48.2067 102.636 46.9V44.28L102.836 42.48L102.696 40.68V37.5H104.056V46.72C104.056 48.5333 103.609 49.86 102.716 50.7C101.836 51.5533 100.529 51.98 98.7959 51.98ZM98.5359 47.6C97.5359 47.6 96.6359 47.3867 95.8359 46.96C95.0359 46.52 94.4026 45.9133 93.9359 45.14C93.4826 44.3667 93.2559 43.48 93.2559 42.48C93.2559 41.48 93.4826 40.6 93.9359 39.84C94.4026 39.0667 95.0359 38.4667 95.8359 38.04C96.6359 37.6133 97.5359 37.4 98.5359 37.4C99.4693 37.4 100.309 37.5933 101.056 37.98C101.803 38.3667 102.396 38.94 102.836 39.7C103.276 40.46 103.496 41.3867 103.496 42.48C103.496 43.5733 103.276 44.5 102.836 45.26C102.396 46.02 101.803 46.6 101.056 47C100.309 47.4 99.4693 47.6 98.5359 47.6ZM98.6759 46.34C99.4493 46.34 100.136 46.18 100.736 45.86C101.336 45.5267 101.809 45.0733 102.156 44.5C102.503 43.9133 102.676 43.24 102.676 42.48C102.676 41.72 102.503 41.0533 102.156 40.48C101.809 39.9067 101.336 39.46 100.736 39.14C100.136 38.8067 99.4493 38.64 98.6759 38.64C97.9159 38.64 97.2293 38.8067 96.6159 39.14C96.0159 39.46 95.5426 39.9067 95.1959 40.48C94.8626 41.0533 94.6959 41.72 94.6959 42.48C94.6959 43.24 94.8626 43.9133 95.1959 44.5C95.5426 45.0733 96.0159 45.5267 96.6159 45.86C97.2293 46.18 97.9159 46.34 98.6759 46.34ZM113.367 37.4C114.221 37.4 114.967 37.5667 115.607 37.9C116.261 38.22 116.767 38.7133 117.127 39.38C117.501 40.0467 117.687 40.8867 117.687 41.9V48H116.267V42.04C116.267 40.9333 115.987 40.1 115.427 39.54C114.881 38.9667 114.107 38.68 113.107 38.68C112.361 38.68 111.707 38.8333 111.147 39.14C110.601 39.4333 110.174 39.8667 109.867 40.44C109.574 41 109.427 41.68 109.427 42.48V48H108.007V33.16H109.427V40.38L109.147 39.84C109.481 39.08 110.014 38.4867 110.747 38.06C111.481 37.62 112.354 37.4 113.367 37.4ZM124.843 48.1C123.856 48.1 123.096 47.8333 122.563 47.3C122.03 46.7667 121.763 46.0133 121.763 45.04V35.18H123.183V44.96C123.183 45.5733 123.336 46.0467 123.643 46.38C123.963 46.7133 124.416 46.88 125.003 46.88C125.63 46.88 126.15 46.7 126.563 46.34L127.063 47.36C126.783 47.6133 126.443 47.8 126.043 47.92C125.656 48.04 125.256 48.1 124.843 48.1ZM119.883 38.68V37.5H126.383V38.68H119.883ZM132.468 48.1C131.601 48.1 130.781 47.98 130.008 47.74C129.235 47.4867 128.628 47.1733 128.188 46.8L128.828 45.68C129.255 46 129.801 46.28 130.468 46.52C131.135 46.7467 131.835 46.86 132.568 46.86C133.568 46.86 134.288 46.7067 134.728 46.4C135.168 46.08 135.388 45.66 135.388 45.14C135.388 44.7533 135.261 44.4533 135.008 44.24C134.768 44.0133 134.448 43.8467 134.048 43.74C133.648 43.62 133.201 43.52 132.708 43.44C132.215 43.36 131.721 43.2667 131.228 43.16C130.748 43.0533 130.308 42.9 129.908 42.7C129.508 42.4867 129.181 42.2 128.928 41.84C128.688 41.48 128.568 41 128.568 40.4C128.568 39.8267 128.728 39.3133 129.048 38.86C129.368 38.4067 129.835 38.0533 130.448 37.8C131.075 37.5333 131.835 37.4 132.728 37.4C133.408 37.4 134.088 37.4933 134.768 37.68C135.448 37.8533 136.008 38.0867 136.448 38.38L135.828 39.52C135.361 39.2 134.861 38.9733 134.328 38.84C133.795 38.6933 133.261 38.62 132.728 38.62C131.781 38.62 131.081 38.7867 130.628 39.12C130.188 39.44 129.968 39.8533 129.968 40.36C129.968 40.76 130.088 41.0733 130.328 41.3C130.581 41.5267 130.908 41.7067 131.308 41.84C131.721 41.96 132.168 42.06 132.648 42.14C133.141 42.22 133.628 42.32 134.108 42.44C134.601 42.5467 135.048 42.7 135.448 42.9C135.861 43.0867 136.188 43.36 136.428 43.72C136.681 44.0667 136.808 44.5267 136.808 45.1C136.808 45.7133 136.635 46.2467 136.288 46.7C135.955 47.14 135.461 47.4867 134.808 47.74C134.168 47.98 133.388 48.1 132.468 48.1Z" fill="#C74134"/>
</svg>
