<svg width="20" height="20" viewBox="0 0 20 20" fill="none" xmlns="http://www.w3.org/2000/svg">
<path fill-rule="evenodd" clip-rule="evenodd" d="M4.25091 4.87179C4.25091 3.03084 5.77866 1.53846 7.6632 1.53846C9.54774 1.53846 11.0755 3.03084 11.0755 4.87179C11.0755 6.71275 9.54774 8.20513 7.6632 8.20513C5.77866 8.20513 4.25091 6.71275 4.25091 4.87179ZM7.6632 0C4.90885 0 2.676 2.18118 2.676 4.87179C2.676 7.56241 4.90885 9.74359 7.6632 9.74359C10.4176 9.74359 12.6504 7.56241 12.6504 4.87179C12.6504 2.18118 10.4176 0 7.6632 0ZM1.69272 16.5666C2.72894 14.3547 5.0135 12.8205 7.6632 12.8205C10.3129 12.8205 12.5975 14.3547 13.6337 16.5666C13.8519 17.0324 13.7528 17.4593 13.4372 17.8119C13.1018 18.1869 12.5206 18.4615 11.863 18.4615H3.46345C2.80577 18.4615 2.22469 18.1869 1.88916 17.8119C1.57369 17.4593 1.47452 17.0324 1.69272 16.5666ZM7.6632 11.2821C4.37487 11.2821 1.54375 13.1875 0.260643 15.9264C-0.24505 17.0058 0.0293836 18.0711 0.703372 18.8243C1.3573 19.5552 2.38154 20 3.46345 20H11.863C12.9449 20 13.9691 19.5552 14.623 18.8243C15.2971 18.0711 15.5715 17.0058 15.0658 15.9264C13.7827 13.1875 10.9516 11.2821 7.6632 11.2821ZM16.0627 6.15385C16.4976 6.15385 16.8502 6.49825 16.8502 6.92308V9.23077H19.2125C19.6474 9.23077 20 9.57518 20 10C20 10.4248 19.6474 10.7692 19.2125 10.7692H16.8502V13.0769C16.8502 13.5017 16.4976 13.8462 16.0627 13.8462C15.6278 13.8462 15.2753 13.5017 15.2753 13.0769V10.7692H12.9129C12.478 10.7692 12.1254 10.4248 12.1254 10C12.1254 9.57518 12.478 9.23077 12.9129 9.23077H15.2753V6.92308C15.2753 6.49825 15.6278 6.15385 16.0627 6.15385Z" fill="white"/>
</svg>
