<svg
  xmlns="http://www.w3.org/2000/svg"
  width="20"
  height="24"
  viewBox="0 0 20 24"
  fill="none">
  <path
    d="M20 6.10256V17.8974C19.9982 19.3828 19.4257 20.8067 18.408 21.857C17.3903 22.9073 16.0106 23.4981 14.5714 23.5H10C9.77267 23.5 9.55466 23.4068 9.39391 23.2409C9.23316 23.075 9.14286 22.85 9.14286 22.6154C9.14286 22.3808 9.23316 22.1558 9.39391 21.9899C9.55466 21.824 9.77267 21.7308 10 21.7308H14.5714C15.5561 21.7295 16.5002 21.3253 17.1965 20.6066C17.8928 19.888 18.2845 18.9137 18.2857 17.8974V6.10256C18.2845 5.08628 17.8928 4.11199 17.1965 3.39337C16.5002 2.67475 15.5561 2.27048 14.5714 2.26923H10C9.77267 2.26923 9.55466 2.17603 9.39391 2.01013C9.23316 1.84424 9.14286 1.61923 9.14286 1.38462C9.14286 1.15 9.23316 0.924995 9.39391 0.759098C9.55466 0.5932 9.77267 0.5 10 0.5H14.5714C16.0106 0.501873 17.3903 1.09274 18.408 2.14302C19.4257 3.1933 19.9982 4.61725 20 6.10256ZM12.8914 11.3749L8.32 6.65692C8.15827 6.49586 7.94171 6.4068 7.71697 6.40892C7.49223 6.41105 7.27729 6.50419 7.11844 6.66828C6.9596 6.83237 6.86955 7.05429 6.86771 7.28624C6.86586 7.51818 6.95236 7.7416 7.10857 7.90836L10.216 11.1154H0.857143C0.629814 11.1154 0.411797 11.2086 0.251051 11.3745C0.0903058 11.5404 0 11.7654 0 12C0 12.2346 0.0903058 12.4596 0.251051 12.6255C0.411797 12.7914 0.629814 12.8846 0.857143 12.8846H10.216L7.10857 16.0928C6.95236 16.2596 6.86586 16.483 6.86771 16.7149C6.86955 16.9469 6.9596 17.1688 7.11844 17.3329C7.27729 17.497 7.49223 17.5901 7.71697 17.5923C7.94171 17.5944 8.15827 17.5053 8.32 17.3443L12.8914 12.6263C12.9711 12.5442 13.0343 12.4466 13.0774 12.3392C13.1205 12.2319 13.1427 12.1168 13.1427 12.0006C13.1427 11.8844 13.1205 11.7693 13.0774 11.6619C13.0343 11.5546 12.9711 11.457 12.8914 11.3749Z"
    fill="white"
  />
</svg>