<svg width="168" height="44" viewBox="0 0 168 44" fill="none" xmlns="http://www.w3.org/2000/svg">
<path d="M0 11C0 5.47715 4.47715 1 10 1H63V34C63 39.5228 58.5228 44 53 44H0V11Z" fill="white"/>
<path d="M9.482 32V13.8H14.526L21.806 25.682H19.154L26.226 13.8H31.27L31.322 32H25.732L25.68 22.224H26.564L21.728 30.362H19.024L13.98 22.224H15.072V32H9.482Z" fill="#3C3F48"/>
<path d="M34.2886 32V13.8H43.2586C45.2866 13.8 47.072 14.1727 48.6146 14.918C50.1573 15.646 51.362 16.686 52.2286 18.038C53.0953 19.39 53.5286 21.002 53.5286 22.874C53.5286 24.7633 53.0953 26.3927 52.2286 27.762C51.362 29.114 50.1573 30.1627 48.6146 30.908C47.072 31.636 45.2866 32 43.2586 32H34.2886ZM40.4246 27.216H42.9986C43.8653 27.216 44.6193 27.0513 45.2606 26.722C45.9193 26.3927 46.4306 25.9073 46.7946 25.266C47.1586 24.6073 47.3406 23.81 47.3406 22.874C47.3406 21.9553 47.1586 21.1753 46.7946 20.534C46.4306 19.8927 45.9193 19.4073 45.2606 19.078C44.6193 18.7487 43.8653 18.584 42.9986 18.584H40.4246V27.216Z" fill="#C23026"/>
<path d="M74.44 18V4H75.3L81.8 15.22H81.34L87.82 4H88.66L88.68 18H87.68L87.66 5.54H87.94L81.8 16.14H81.3L75.14 5.54H75.44V18H74.44ZM97.4811 18.08C96.4278 18.08 95.4944 17.8533 94.6811 17.4C93.8811 16.9467 93.2478 16.32 92.7811 15.52C92.3278 14.72 92.1011 13.8067 92.1011 12.78C92.1011 11.74 92.3144 10.8267 92.7411 10.04C93.1811 9.24 93.7811 8.61333 94.5411 8.16C95.3011 7.70667 96.1544 7.48 97.1011 7.48C98.0478 7.48 98.8944 7.7 99.6411 8.14C100.401 8.58 100.994 9.2 101.421 10C101.861 10.7867 102.081 11.7 102.081 12.74C102.081 12.78 102.074 12.8267 102.061 12.88C102.061 12.92 102.061 12.9667 102.061 13.02H92.8411V12.24H101.521L101.121 12.62C101.134 11.8067 100.961 11.08 100.601 10.44C100.254 9.78667 99.7811 9.28 99.1811 8.92C98.5811 8.54667 97.8878 8.36 97.1011 8.36C96.3278 8.36 95.6344 8.54667 95.0211 8.92C94.4211 9.28 93.9478 9.78667 93.6011 10.44C93.2544 11.08 93.0811 11.8133 93.0811 12.64V12.82C93.0811 13.6733 93.2678 14.4333 93.6411 15.1C94.0278 15.7533 94.5544 16.2667 95.2211 16.64C95.8878 17 96.6478 17.18 97.5011 17.18C98.1678 17.18 98.7878 17.06 99.3611 16.82C99.9478 16.58 100.441 16.2133 100.841 15.72L101.421 16.38C100.968 16.94 100.394 17.3667 99.7011 17.66C99.0211 17.94 98.2811 18.08 97.4811 18.08ZM109.195 18.08C108.221 18.08 107.341 17.86 106.555 17.42C105.781 16.9667 105.168 16.34 104.715 15.54C104.261 14.74 104.035 13.82 104.035 12.78C104.035 11.7267 104.261 10.8067 104.715 10.02C105.168 9.22 105.781 8.6 106.555 8.16C107.341 7.70667 108.221 7.48 109.195 7.48C110.115 7.48 110.941 7.69333 111.675 8.12C112.421 8.54667 113.008 9.15333 113.435 9.94C113.875 10.7267 114.095 11.6733 114.095 12.78C114.095 13.86 113.881 14.8 113.455 15.6C113.028 16.4 112.441 17.0133 111.695 17.44C110.961 17.8667 110.128 18.08 109.195 18.08ZM109.255 17.18C110.055 17.18 110.768 17 111.395 16.64C112.035 16.2667 112.535 15.7467 112.895 15.08C113.268 14.4133 113.455 13.6467 113.455 12.78C113.455 11.9 113.268 11.1333 112.895 10.48C112.535 9.81333 112.035 9.3 111.395 8.94C110.768 8.56667 110.055 8.38 109.255 8.38C108.455 8.38 107.735 8.56667 107.095 8.94C106.468 9.3 105.968 9.81333 105.595 10.48C105.235 11.1333 105.055 11.9 105.055 12.78C105.055 13.6467 105.235 14.4133 105.595 15.08C105.968 15.7467 106.468 16.2667 107.095 16.64C107.735 17 108.455 17.18 109.255 17.18ZM113.475 18V14.58L113.655 12.76L113.455 10.94V3.16H114.455V18H113.475ZM118.671 18V7.56H119.671V18H118.671ZM119.171 5.02C118.944 5.02 118.751 4.94 118.591 4.78C118.431 4.62 118.351 4.43333 118.351 4.22C118.351 3.99333 118.431 3.8 118.591 3.64C118.751 3.48 118.944 3.4 119.171 3.4C119.411 3.4 119.604 3.48 119.751 3.64C119.911 3.78667 119.991 3.97333 119.991 4.2C119.991 4.42667 119.911 4.62 119.751 4.78C119.604 4.94 119.411 5.02 119.171 5.02ZM126.926 18.08C126.006 18.08 125.299 17.8267 124.806 17.32C124.326 16.8133 124.086 16.12 124.086 15.24V5.28H125.086V15.14C125.086 15.8067 125.252 16.32 125.586 16.68C125.919 17.04 126.399 17.22 127.026 17.22C127.679 17.22 128.219 17.0267 128.646 16.64L129.066 17.34C128.799 17.5933 128.472 17.78 128.086 17.9C127.712 18.02 127.326 18.08 126.926 18.08ZM122.166 8.42V7.56H128.406V8.42H122.166ZM135.723 18.08C134.67 18.08 133.737 17.8533 132.923 17.4C132.123 16.9467 131.49 16.32 131.023 15.52C130.57 14.72 130.343 13.8067 130.343 12.78C130.343 11.74 130.557 10.8267 130.983 10.04C131.423 9.24 132.023 8.61333 132.783 8.16C133.543 7.70667 134.397 7.48 135.343 7.48C136.29 7.48 137.137 7.7 137.883 8.14C138.643 8.58 139.237 9.2 139.663 10C140.103 10.7867 140.323 11.7 140.323 12.74C140.323 12.78 140.317 12.8267 140.303 12.88C140.303 12.92 140.303 12.9667 140.303 13.02H131.083V12.24H139.763L139.363 12.62C139.377 11.8067 139.203 11.08 138.843 10.44C138.497 9.78667 138.023 9.28 137.423 8.92C136.823 8.54667 136.13 8.36 135.343 8.36C134.57 8.36 133.877 8.54667 133.263 8.92C132.663 9.28 132.19 9.78667 131.843 10.44C131.497 11.08 131.323 11.8133 131.323 12.64V12.82C131.323 13.6733 131.51 14.4333 131.883 15.1C132.27 15.7533 132.797 16.2667 133.463 16.64C134.13 17 134.89 17.18 135.743 17.18C136.41 17.18 137.03 17.06 137.603 16.82C138.19 16.58 138.683 16.2133 139.083 15.72L139.663 16.38C139.21 16.94 138.637 17.3667 137.943 17.66C137.263 17.94 136.523 18.08 135.723 18.08ZM143.417 18V7.56H144.377V10.42L144.277 10.1C144.57 9.26 145.064 8.61333 145.757 8.16C146.45 7.70667 147.317 7.48 148.357 7.48V8.46C148.317 8.46 148.277 8.46 148.237 8.46C148.197 8.44667 148.157 8.44 148.117 8.44C146.957 8.44 146.05 8.80667 145.397 9.54C144.744 10.26 144.417 11.2667 144.417 12.56V18H143.417ZM151.112 18V7.56H152.072V10.42L151.972 10.1C152.266 9.26 152.759 8.61333 153.452 8.16C154.146 7.70667 155.012 7.48 156.052 7.48V8.46C156.012 8.46 155.972 8.46 155.932 8.46C155.892 8.44667 155.852 8.44 155.812 8.44C154.652 8.44 153.746 8.80667 153.092 9.54C152.439 10.26 152.112 11.2667 152.112 12.56V18H151.112ZM164.606 18V15.62L164.566 15.26V11.34C164.566 10.3667 164.3 9.62667 163.766 9.12C163.246 8.61333 162.48 8.36 161.466 8.36C160.746 8.36 160.073 8.48667 159.446 8.74C158.833 8.98 158.306 9.29333 157.866 9.68L157.366 8.96C157.886 8.49333 158.513 8.13333 159.246 7.88C159.98 7.61333 160.746 7.48 161.546 7.48C162.84 7.48 163.833 7.80667 164.526 8.46C165.22 9.11333 165.566 10.0867 165.566 11.38V18H164.606ZM160.846 18.08C160.073 18.08 159.4 17.96 158.826 17.72C158.266 17.4667 157.833 17.1133 157.526 16.66C157.233 16.2067 157.086 15.6867 157.086 15.1C157.086 14.5667 157.206 14.0867 157.446 13.66C157.7 13.22 158.113 12.8667 158.686 12.6C159.26 12.32 160.026 12.18 160.986 12.18H164.826V12.96H161.006C159.926 12.96 159.166 13.16 158.726 13.56C158.3 13.96 158.086 14.46 158.086 15.06C158.086 15.7267 158.34 16.26 158.846 16.66C159.353 17.06 160.066 17.26 160.986 17.26C161.866 17.26 162.606 17.06 163.206 16.66C163.82 16.26 164.273 15.68 164.566 14.92L164.846 15.6C164.566 16.36 164.086 16.9667 163.406 17.42C162.74 17.86 161.886 18.08 160.846 18.08ZM74.44 40V26H79.98C81.46 26 82.76 26.3 83.88 26.9C85 27.5 85.8667 28.3267 86.48 29.38C87.1067 30.4333 87.42 31.64 87.42 33C87.42 34.36 87.1067 35.5667 86.48 36.62C85.8667 37.6733 85 38.5 83.88 39.1C82.76 39.7 81.46 40 79.98 40H74.44ZM75.46 39.08H79.9C81.22 39.08 82.3667 38.82 83.34 38.3C84.3133 37.78 85.0667 37.0667 85.6 36.16C86.1333 35.24 86.4 34.1867 86.4 33C86.4 31.8133 86.1333 30.7667 85.6 29.86C85.0667 28.94 84.3133 28.22 83.34 27.7C82.3667 27.18 81.22 26.92 79.9 26.92H75.46V39.08ZM94.8834 40.08C93.8301 40.08 92.8968 39.8533 92.0834 39.4C91.2834 38.9467 90.6501 38.32 90.1834 37.52C89.7301 36.72 89.5034 35.8067 89.5034 34.78C89.5034 33.74 89.7168 32.8267 90.1434 32.04C90.5834 31.24 91.1834 30.6133 91.9434 30.16C92.7034 29.7067 93.5568 29.48 94.5034 29.48C95.4501 29.48 96.2968 29.7 97.0434 30.14C97.8034 30.58 98.3968 31.2 98.8234 32C99.2634 32.7867 99.4834 33.7 99.4834 34.74C99.4834 34.78 99.4768 34.8267 99.4634 34.88C99.4634 34.92 99.4634 34.9667 99.4634 35.02H90.2434V34.24H98.9234L98.5234 34.62C98.5368 33.8067 98.3634 33.08 98.0034 32.44C97.6568 31.7867 97.1834 31.28 96.5834 30.92C95.9834 30.5467 95.2901 30.36 94.5034 30.36C93.7301 30.36 93.0368 30.5467 92.4234 30.92C91.8234 31.28 91.3501 31.7867 91.0034 32.44C90.6568 33.08 90.4834 33.8133 90.4834 34.64V34.82C90.4834 35.6733 90.6701 36.4333 91.0434 37.1C91.4301 37.7533 91.9568 38.2667 92.6234 38.64C93.2901 39 94.0501 39.18 94.9034 39.18C95.5701 39.18 96.1901 39.06 96.7634 38.82C97.3501 38.58 97.8434 38.2133 98.2434 37.72L98.8234 38.38C98.3701 38.94 97.7968 39.3667 97.1034 39.66C96.4234 39.94 95.6834 40.08 94.8834 40.08ZM102.577 40V25.16H103.577V40H102.577ZM107.792 40V29.56H108.792V40H107.792ZM108.292 27.02C108.065 27.02 107.872 26.94 107.712 26.78C107.552 26.62 107.472 26.4333 107.472 26.22C107.472 25.9933 107.552 25.8 107.712 25.64C107.872 25.48 108.065 25.4 108.292 25.4C108.532 25.4 108.725 25.48 108.872 25.64C109.032 25.7867 109.112 25.9733 109.112 26.2C109.112 26.4267 109.032 26.62 108.872 26.78C108.725 26.94 108.532 27.02 108.292 27.02ZM117.347 43.96C116.4 43.96 115.5 43.8133 114.647 43.52C113.793 43.2267 113.1 42.82 112.567 42.3L113.107 41.54C113.627 42.02 114.247 42.3933 114.967 42.66C115.7 42.9267 116.487 43.06 117.327 43.06C118.727 43.06 119.753 42.7333 120.407 42.08C121.073 41.4267 121.407 40.4 121.407 39V36.1L121.607 34.54L121.447 32.98V29.56H122.407V38.88C122.407 40.6267 121.98 41.9067 121.127 42.72C120.287 43.5467 119.027 43.96 117.347 43.96ZM117.067 39.62C116.08 39.62 115.193 39.4067 114.407 38.98C113.633 38.54 113.013 37.94 112.547 37.18C112.093 36.4067 111.867 35.5267 111.867 34.54C111.867 33.54 112.093 32.66 112.547 31.9C113.013 31.14 113.633 30.5467 114.407 30.12C115.193 29.6933 116.08 29.48 117.067 29.48C118.013 29.48 118.86 29.6867 119.607 30.1C120.367 30.5 120.967 31.08 121.407 31.84C121.847 32.5867 122.067 33.4867 122.067 34.54C122.067 35.58 121.847 36.48 121.407 37.24C120.967 38 120.367 38.5867 119.607 39C118.86 39.4133 118.013 39.62 117.067 39.62ZM117.147 38.72C117.987 38.72 118.727 38.5467 119.367 38.2C120.007 37.84 120.507 37.3467 120.867 36.72C121.24 36.08 121.427 35.3533 121.427 34.54C121.427 33.7133 121.24 32.9867 120.867 32.36C120.507 31.7333 120.007 31.2467 119.367 30.9C118.727 30.5533 117.987 30.38 117.147 30.38C116.333 30.38 115.6 30.5533 114.947 30.9C114.307 31.2467 113.8 31.7333 113.427 32.36C113.067 32.9867 112.887 33.7133 112.887 34.54C112.887 35.3533 113.067 36.08 113.427 36.72C113.8 37.3467 114.307 37.84 114.947 38.2C115.6 38.5467 116.333 38.72 117.147 38.72ZM131.74 29.48C132.593 29.48 133.333 29.6467 133.96 29.98C134.6 30.3 135.093 30.7933 135.44 31.46C135.8 32.1133 135.98 32.9267 135.98 33.9V40H134.98V33.98C134.98 32.8067 134.68 31.9133 134.08 31.3C133.493 30.6867 132.666 30.38 131.6 30.38C130.786 30.38 130.08 30.5467 129.48 30.88C128.88 31.2133 128.42 31.68 128.1 32.28C127.793 32.88 127.64 33.6 127.64 34.44V40H126.64V25.16H127.64V32.46L127.46 32.14C127.78 31.3133 128.306 30.6667 129.04 30.2C129.773 29.72 130.673 29.48 131.74 29.48ZM143.137 40.08C142.217 40.08 141.51 39.8267 141.017 39.32C140.537 38.8133 140.297 38.12 140.297 37.24V27.28H141.297V37.14C141.297 37.8067 141.463 38.32 141.797 38.68C142.13 39.04 142.61 39.22 143.237 39.22C143.89 39.22 144.43 39.0267 144.857 38.64L145.277 39.34C145.01 39.5933 144.683 39.78 144.297 39.9C143.923 40.02 143.537 40.08 143.137 40.08ZM138.377 30.42V29.56H144.617V30.42H138.377ZM150.705 40.08C149.839 40.08 149.025 39.9533 148.265 39.7C147.519 39.4467 146.939 39.1267 146.525 38.74L146.985 37.94C147.385 38.2867 147.919 38.5867 148.585 38.84C149.252 39.08 149.972 39.2 150.745 39.2C151.839 39.2 152.625 39.02 153.105 38.66C153.585 38.3 153.825 37.8267 153.825 37.24C153.825 36.8133 153.699 36.48 153.445 36.24C153.205 35.9867 152.879 35.7933 152.465 35.66C152.052 35.5267 151.599 35.42 151.105 35.34C150.612 35.2467 150.119 35.1467 149.625 35.04C149.132 34.9333 148.679 34.78 148.265 34.58C147.852 34.38 147.519 34.1067 147.265 33.76C147.025 33.4 146.905 32.9267 146.905 32.34C146.905 31.8067 147.052 31.3267 147.345 30.9C147.639 30.4733 148.079 30.1333 148.665 29.88C149.252 29.6133 149.985 29.48 150.865 29.48C151.519 29.48 152.172 29.5733 152.825 29.76C153.492 29.9467 154.032 30.1933 154.445 30.5L153.985 31.3C153.545 30.9667 153.052 30.7267 152.505 30.58C151.959 30.4333 151.405 30.36 150.845 30.36C149.832 30.36 149.085 30.5467 148.605 30.92C148.139 31.2933 147.905 31.76 147.905 32.32C147.905 32.76 148.025 33.1133 148.265 33.38C148.519 33.6333 148.852 33.8333 149.265 33.98C149.679 34.1133 150.132 34.2267 150.625 34.32C151.119 34.4 151.612 34.4933 152.105 34.6C152.599 34.7067 153.052 34.86 153.465 35.06C153.879 35.2467 154.205 35.5133 154.445 35.86C154.699 36.1933 154.825 36.6467 154.825 37.22C154.825 37.7933 154.665 38.2933 154.345 38.72C154.039 39.1467 153.579 39.48 152.965 39.72C152.352 39.96 151.599 40.08 150.705 40.08Z" fill="#F9F9F9"/>
</svg>
