<svg width="31" height="19" viewBox="0 0 31 19" fill="none" xmlns="http://www.w3.org/2000/svg">
<path d="M2.89999 7.375C1.81269 7.375 0.799988 8.3395 0.799988 9.375C0.799988 10.4105 1.81269 11.375 2.89999 11.375H23.2421L18.8329 15.5492C18.0641 16.2815 18.0641 17.4685 18.8329 18.2007C19.6018 18.933 20.8482 18.933 21.617 18.2007L29.492 10.7007C29.8614 10.3492 30.0687 9.87224 30.0687 9.37499C30.0687 8.87774 29.8614 8.40074 29.492 8.04924L21.617 0.549169C20.8482 -0.183056 19.6018 -0.183056 18.8329 0.549169C18.0641 1.28139 18.0641 2.46859 18.8329 3.20082L23.2421 7.375H2.89999Z" fill="#f2f2f2"/>
</svg>
