<svg width="20" height="20" viewBox="0 0 20 20" fill="none" xmlns="http://www.w3.org/2000/svg">
<g clip-path="url(#clip0_44_540)">
<path d="M19.9591 6.174C19.9063 6.06619 19.8102 6 19.7064 6H0.293558C0.189761 6 0.0937147 6.06614 0.0408772 6.174C-0.0119603 6.28186 -0.0136824 6.41532 0.0363371 6.52511C0.393088 7.30808 1.37062 8.28976 2.58745 9.08705C3.337 9.57814 4.77253 10.3815 6.26224 10.4785V10.8898C6.26224 11.502 6.67484 12 7.182 12H12.818C13.3252 12 13.7378 11.502 13.7378 10.8898V10.4785C15.2275 10.3815 16.663 9.57814 17.4126 9.08705C18.6294 8.28976 19.6069 7.30808 19.9637 6.52511C20.0137 6.41532 20.012 6.28181 19.9591 6.174ZM12.818 11.2913H7.182C6.99856 11.2913 6.84932 11.1112 6.84932 10.8897V10.4882H13.1507V10.8897C13.1507 11.1112 13.0014 11.2913 12.818 11.2913ZM13.4442 9.7795H6.55578C4.51144 9.7795 1.89813 8.04778 0.876531 6.70866H19.1235C18.1019 8.04778 15.4886 9.7795 13.4442 9.7795Z" fill="#F2F2F2"/>
<path d="M11.2935 8.68946H13.1722C13.4841 8.68946 13.82 8.65303 14.1706 8.58113C14.3294 8.54856 14.4317 8.39342 14.3992 8.23459C14.3666 8.07577 14.2112 7.97353 14.0526 8.00602C13.7408 8.06997 13.4446 8.10238 13.1722 8.10238H11.2935C11.1314 8.10238 11 8.23381 11 8.39592C11 8.55804 11.1314 8.68946 11.2935 8.68946Z" fill="#F2F2F2"/>
<path d="M15.2937 8.72607C15.3301 8.72607 15.3671 8.71926 15.4029 8.70486C15.5146 8.66004 15.6282 8.6119 15.7406 8.56169C15.8887 8.49562 15.9551 8.322 15.889 8.17398C15.8229 8.02591 15.6493 7.95946 15.5013 8.0256C15.3957 8.07276 15.2891 8.11793 15.1843 8.16C15.0338 8.22036 14.9608 8.39127 15.0212 8.54173C15.0671 8.6564 15.1773 8.72607 15.2937 8.72607Z" fill="#F2F2F2"/>
</g>
<defs>
<clipPath id="clip0_44_540">
<rect width="20" height="20" fill="white"/>
</clipPath>
</defs>
</svg>
