<svg width="31" height="19" viewBox="0 0 31 19" fill="none" xmlns="http://www.w3.org/2000/svg">
<path d="M28.1 11.625C29.1873 11.625 30.2 10.6605 30.2 9.625C30.2 8.5895 29.1873 7.625 28.1 7.625L7.75793 7.625L12.167 3.45076C12.9359 2.71851 12.9359 1.53151 12.167 0.799259C11.3982 0.0670086 10.1518 0.0670087 9.38297 0.799259L1.50798 8.29926C1.13864 8.65076 0.931262 9.12776 0.931262 9.62501C0.931262 10.1223 1.13864 10.5993 1.50798 10.9508L9.38297 18.4508C10.1518 19.1831 11.3982 19.1831 12.1671 18.4508C12.9359 17.7186 12.9359 16.5314 12.1671 15.7992L7.75793 11.625L28.1 11.625Z" fill="#f2f2f2"/>
</svg>
