<svg width="18" height="18" viewBox="0 0 18 18" fill="none" xmlns="http://www.w3.org/2000/svg">
<g clip-path="url(#clip0_44_545)">
<path d="M12.3071 16H5.69294C5.50916 16 5.33291 15.9287 5.20296 15.8017C5.07301 15.6748 5 15.5026 5 15.323V7.54217C4.9998 7.4958 5.00948 7.4499 5.02842 7.40738C5.04737 7.36486 5.07516 7.32666 5.11004 7.29521L8.62231 4.08757C8.6858 4.03122 8.7685 4 8.85428 4C8.94005 4 9.02276 4.03122 9.08625 4.08757L12.881 7.28359C12.9182 7.31559 12.948 7.35491 12.9685 7.39898C12.9891 7.44305 12.9998 7.49086 13 7.53927V15.3317C12.9977 15.5098 12.9236 15.6797 12.7939 15.8048C12.6642 15.9299 12.4893 16 12.3071 16Z" stroke="#F2F2F2" stroke-width="0.5" stroke-linecap="round"/>
<path d="M8.4953 6C7.66959 6 7 5.10208 7 3.99583C7 2.88958 7.66959 2 8.4953 2C9.321 2 10 2.89583 10 4.00208" stroke="#F2F2F2" stroke-width="0.5" stroke-linecap="round"/>
<path d="M8.55273 8C8.30523 8 8.06562 8.07932 7.85938 8.22905L7.55916 8.44739C7.44742 8.52865 7.41684 8.6821 7.48888 8.79999C7.56959 8.93206 7.74581 8.96718 7.87098 8.87615L8.13672 8.68288C8.26047 8.59288 8.40423 8.54545 8.55273 8.54545H9.64893C9.98043 8.54545 10.25 8.83954 10.25 9.20117C10.25 9.39644 10.1712 9.58043 10.0337 9.70561L9.81006 9.90909H7.27273C7.1221 9.90909 7 10.0312 7 10.1818C7 10.3324 7.1221 10.4545 7.27273 10.4545H9.20996L8.30957 11.2727H7.27273C7.1221 11.2727 7 11.3948 7 11.5455C7 11.6961 7.1221 11.8182 7.27273 11.8182H7.70996L7.64648 11.8757C7.39473 12.1048 7.25 12.4413 7.25 12.7988C7.25 13.4613 7.74382 14 8.35107 14H9.44727C9.69477 14 9.93462 13.9207 10.1406 13.771L10.4408 13.5526C10.5526 13.4714 10.5832 13.3179 10.5111 13.2C10.4304 13.0679 10.2542 13.0328 10.129 13.1239L9.86328 13.3171C9.73953 13.4071 9.59577 13.4545 9.44727 13.4545H8.35107C8.01957 13.4545 7.79919 13.1605 7.79919 12.7988C7.79919 12.6036 7.82881 12.4196 7.96631 12.2944L8.38456 11.8182H10.7273C10.8779 11.8182 11 11.6961 11 11.5455C11 11.3948 10.8779 11.2727 10.7273 11.2727H9.09033L9.99023 10.4545H10.7273C10.8779 10.4545 11 10.3324 11 10.1818C11 10.0312 10.8779 9.90909 10.7273 9.90909H10.5376C10.674 9.70555 10.75 9.45912 10.75 9.20117C10.75 8.53872 10.2562 8 9.64893 8H8.55273Z" fill="#F2F2F2"/>
</g>
<defs>
<clipPath id="clip0_44_545">
<rect width="18" height="18" fill="white"/>
</clipPath>
</defs>
</svg>
