<svg width="15" height="14" viewBox="0 0 15 14" fill="" xmlns="http://www.w3.org/2000/svg">
<path d="M5.64109 2.42803C6.29659 0.809346 6.62434 0 7.18801 0C7.75159 0 8.07934 0.809346 8.73484 2.42804L8.76534 2.50341C9.13568 3.41789 9.32084 3.87513 9.69826 4.15305C10.0756 4.43096 10.571 4.47491 11.5618 4.5628L11.7408 4.57868C13.3623 4.72253 14.1732 4.79446 14.3466 5.30536C14.5201 5.81631 13.918 6.35896 12.7138 7.44408L12.3119 7.80629C11.7023 8.35562 11.3975 8.63032 11.2554 8.9903C11.2289 9.05749 11.2069 9.12625 11.1895 9.19625C11.0961 9.57158 11.1853 9.97002 11.3639 10.767L11.4194 11.015C11.7475 12.4797 11.9115 13.2119 11.6252 13.5278C11.5181 13.6459 11.379 13.7308 11.2245 13.7726C10.811 13.8843 10.2239 13.4105 9.04984 12.4629C8.27884 11.8406 7.89334 11.5294 7.45076 11.4594C7.27668 11.4319 7.09926 11.4319 6.92518 11.4594C6.48259 11.5294 6.09709 11.8406 5.32615 12.4629C4.15202 13.4105 3.56496 13.8843 3.15146 13.7726C2.99694 13.7308 2.85785 13.6459 2.75083 13.5278C2.46443 13.2119 2.62846 12.4797 2.95653 11.015L3.01208 10.767C3.19059 9.97002 3.27985 9.57158 3.18647 9.19625C3.16905 9.12625 3.14702 9.05749 3.12052 8.9903C2.97846 8.63032 2.67367 8.35562 2.06408 7.80629L1.66218 7.44408C0.457968 6.35896 -0.144132 5.81631 0.0293511 5.30536C0.202834 4.79446 1.01359 4.72253 2.6351 4.57868L2.81422 4.5628C3.80498 4.47491 4.30036 4.43096 4.67773 4.15305C5.05511 3.87513 5.24028 3.41789 5.61059 2.50341L5.64109 2.42803Z" fill="#A9ACB4"/>
</svg>
