<svg width="36" height="38" viewBox="0 0 36 38" fill="none" xmlns="http://www.w3.org/2000/svg">
<path d="M2 14.3428V23.8422C2 26.3737 2.9601 28.8109 4.68662 30.6623L5.67871 31.7262C8.84179 35.118 14.217 35.118 17.3801 31.7262L18.3722 30.6623C20.0987 28.8109 21.0588 26.3737 21.0588 23.8422V14.5" stroke="#C74134" stroke-width="3" stroke-linecap="square"/>
<path d="M21.5 14.5H25.0424C28.6652 14.5 31.9483 16.6336 33.4196 19.9442V19.9442C34.4296 22.2166 34.4731 24.8018 33.54 27.1069L33.279 27.7519C31.7504 31.5284 28.0836 34 24.0095 34H21" stroke="#C74134" stroke-width="3" stroke-linecap="square"/>
<path d="M6.23509 3.05713L6.5902 3.68432C7.0426 4.48337 7.1768 5.42372 6.96597 6.31743L6.91769 6.52206C6.817 6.94887 6.61649 7.3457 6.33262 7.67995V7.67995C5.62849 8.50906 5.47437 9.67336 5.93852 10.6571L6.23509 11.2857" stroke="#C74134" stroke-width="2" stroke-linecap="round"/>
<path d="M16.8235 3.05713L17.1786 3.68432C17.631 4.48337 17.7652 5.42372 17.5543 6.31743L17.5061 6.52206C17.4054 6.94887 17.2049 7.3457 16.921 7.67995V7.67995C16.2169 8.50906 16.0627 9.67336 16.5269 10.6571L16.8235 11.2857" stroke="#C74134" stroke-width="2" stroke-linecap="round"/>
<path d="M11.5295 1L11.8783 1.76996C12.3404 2.79026 12.4769 3.92818 12.2692 5.02883L12.2089 5.34833C12.11 5.8724 11.9043 6.37051 11.6045 6.81165V6.81165C10.8937 7.85794 10.7365 9.18471 11.1832 10.3681L11.5295 11.2857" stroke="#C74134" stroke-width="2" stroke-linecap="round"/>
</svg>
